<svg xmlns="http://www.w3.org/2000/svg" xmlns:xlink="http://www.w3.org/1999/xlink" width="52px" height="52px" viewBox="0 0 52 52"><title>Artboard</title><g id="Artboard" stroke="none" stroke-width="1" fill="none" fill-rule="evenodd"><g id="Group-13"><path d="M26,52 C40.3594035,52 52,40.3594035 52,26 C52,11.6405965 40.3594035,0 26,0 C11.6405965,0 0,11.6405965 0,26 C0,40.3594035 11.6405965,52 26,52 Z" id="Oval" fill="#000000"></path><g id="Icon" transform="translate(14.000000, 14.000162)" fill="#FFFFFF"><path d="M20.6783664,0.141126633 C21.627611,-0.451614738 22.5102067,0.977703094 21.5690424,1.56518555 C19.050652,3.1383661 17.1561193,5.79346561 15.8351793,8.2915287 C15.0469285,9.7822336 14.2407337,11.590865 13.9683428,13.395123 C15.2854935,12.1326319 17.0855144,11.3314621 19.0417361,11.6680813 C21.3021128,12.0567684 23.4181023,13.6209416 23.9042599,15.7825418 C24.7701934,19.6333818 19.5684626,22.3998033 16.1138678,20.9347679 C6.96904373,17.0566441 15.1408837,3.59927034 20.6783664,0.141126633 Z M19.4742811,13.4576349 C17.2520211,12.856771 15.4085898,13.9108341 14.2956209,15.7009296 C14.2821908,15.7223816 14.2657515,15.7373252 14.2512069,15.7564862 C14.2533245,16.1245023 14.259956,16.4918935 14.2843084,16.8587642 C15.4859382,19.8015397 20.2486002,20.9907711 21.9049022,17.6696701 C22.7777458,15.919719 21.3731602,13.9709727 19.4742811,13.4576349 Z" id="Shape"></path><path d="M8.6784544,0.141126633 C9.62751585,-0.451614738 10.5103754,0.977703094 9.56922698,1.56518555 C7.05043316,3.1383661 5.15621066,5.79346561 3.83529282,8.2915287 C3.04666519,9.7822336 2.24104184,11.590865 1.96854401,13.395123 C3.28550541,12.1326319 5.08549523,11.3314621 7.04168415,11.6680813 C9.30207872,12.0567684 11.4184228,13.6209416 11.9042937,15.7825418 C12.7700455,19.6333818 7.56856918,22.3998033 4.11403227,20.9347679 C-5.03108358,17.0566441 3.14089727,3.59927034 8.6784544,0.141126633 Z M7.47411847,13.4576592 C5.25195169,12.8567953 3.4083842,13.9108586 2.295434,15.7009542 L2.295434,15.7009542 L2.27364492,15.7280815 C2.28016481,16.2463136 2.3268632,16.7453328 2.46578693,17.2375309 C3.90300405,19.8964841 8.32164803,20.8440683 9.9045873,17.6696947 C10.7775277,15.9197435 9.37285435,13.970997 7.47411847,13.4576592 Z" id="Shape"></path></g></g></g></svg>