<svg width="107" height="52" viewBox="0 0 107 52" fill="none" xmlns="http://www.w3.org/2000/svg">
<path d="M8.07879 17.1477V19.1908H12.5673V22.9666H8.07879V34.6045H3.99247V22.9666H1.23828V19.1908H3.99247V16.3433C3.99247 13.6502 5.3229 12.3809 7.86158 12.3809H12.2567V16.1566H9.00704C8.296 16.1566 8.07879 16.4044 8.07879 17.1477V17.1477Z" fill="black"/>
<path d="M12.3184 26.8354C12.3184 22.3469 15.9703 18.7256 20.676 18.7256C25.3817 18.7256 29.003 22.3164 29.003 26.8354C29.003 31.3545 25.2883 35.0692 20.676 35.0692C16.0636 35.0692 12.3184 31.3545 12.3184 26.8354V26.8354ZM25.0406 26.866C25.0406 24.2357 22.9974 22.5319 20.7065 22.5319C18.4156 22.5319 16.3113 24.2645 16.3113 26.866C16.3113 29.4674 18.4156 31.2611 20.7065 31.2611C22.9974 31.2611 25.0406 29.5285 25.0406 26.866Z" fill="black"/>
<path d="M47.2025 34.6044H43.2401L43.1773 32.9329C41.7841 34.3872 39.9276 35.0694 38.1933 35.0694C33.5504 35.0694 30.4551 31.2309 30.4551 26.8985C30.4551 22.5661 33.5504 18.7275 38.1933 18.7275C39.9259 18.7275 41.7841 19.3469 43.1773 20.7402L43.2401 19.1925H47.2025V34.6078V34.6044ZM43.2401 26.8968C43.2401 24.4514 41.3208 22.5322 38.906 22.5322C36.4912 22.5322 34.5414 24.4514 34.5414 26.8968C34.5414 29.3421 36.4912 31.2614 38.906 31.2614C41.3208 31.2614 43.2401 29.3421 43.2401 26.8968Z" fill="black"/>
<path d="M66.2133 26.8972C66.2133 31.2313 63.118 35.0682 58.5056 35.0682C56.8035 35.0682 54.9453 34.4793 53.5844 33.1184V40.8566H49.498V19.1896H53.4299L53.5233 20.8611C54.8859 19.4068 56.773 18.7246 58.5073 18.7246C63.1197 18.7246 66.215 22.5632 66.215 26.8955L66.2133 26.8972ZM62.1269 26.8972C62.1269 24.4519 60.2077 22.5326 57.7929 22.5326C55.3781 22.5326 53.4282 24.4519 53.4282 26.8972C53.4282 29.3426 55.3781 31.2619 57.7929 31.2619C60.2077 31.2619 62.1269 29.3426 62.1269 26.8972V26.8972Z" fill="black"/>
<path d="M67.3552 30.7053L70.946 29.6837C71.2871 30.7664 72.122 31.603 73.4847 31.603C74.4757 31.603 75.1257 31.0769 75.1257 30.3336C75.1257 29.8076 74.8474 29.3426 73.8869 28.971L71.3482 27.9494C68.9029 26.9906 67.7879 25.4735 67.7879 23.5847C67.7879 20.7678 70.0483 18.7246 73.3591 18.7246C76.6699 18.7246 78.7453 20.9527 78.9931 23.2437L75.4328 23.8631C75.2784 23.0892 74.6285 22.1915 73.2963 22.1915C72.3053 22.1915 71.7181 22.7176 71.7181 23.3675C71.7181 24.0175 72.2137 24.3891 73.1419 24.698L75.2784 25.5023C77.476 26.3372 79.2408 27.6694 79.2408 30.0519C79.2408 33.0233 76.6716 35.0665 73.3591 35.0665C69.7378 35.0665 67.6641 32.8061 67.3535 30.7019L67.3552 30.7053Z" fill="black"/>
<path d="M100.723 14.707H87.7168C84.8835 14.707 82.5879 17.0028 82.5879 19.8364V32.8418C82.5879 35.6753 84.8853 37.9712 87.7168 37.9712H100.723C103.556 37.9712 105.852 35.6753 105.852 32.8418V19.8364C105.852 17.0028 103.555 14.707 100.723 14.707V14.707ZM90.3114 32.8383C88.8753 32.8507 87.7097 31.6833 87.7221 30.2489C87.7345 28.8551 88.8735 27.716 90.2671 27.7037C91.7032 27.6913 92.8687 28.8569 92.8564 30.2931C92.844 31.6868 91.705 32.8259 90.3114 32.8383ZM100.716 30.2701C100.716 31.7098 99.5293 32.8737 98.0808 32.8365C96.6854 32.7994 95.5818 31.6373 95.5818 30.2418V24.9745H90.3167C88.9212 24.9745 87.7593 23.8708 87.7221 22.4753C87.685 21.0267 88.8487 19.8399 90.2884 19.8399H98.148C99.5664 19.8399 100.716 20.9896 100.716 22.4081V30.2683V30.2701Z" fill="#F55028"/>
</svg>
